<svg version="1.0" xmlns="http://www.w3.org/2000/svg" xmlns:xlink="http://www.w3.org/1999/xlink"
	 viewBox="0 0 100 100" enable-background="new 0 0 100 100" xml:space="preserve">
	
<svg xmlns="http://www.w3.org/2000/svg" xmlns:xlink="http://www.w3.org/1999/xlink" version="1.1" width="100" height="100" viewBox="0 0 2000 2000" x="0" y="0" shape-rendering="crispEdges"><defs/><rect x="0" y="0" width="2000" height="2000" fill="#ffffff"/><svg viewBox="0 0 4 4" x="629" y="173" width="57" height="57" shape-rendering="auto"><circle fill="#000000" cx="2" cy="2" r="1.75"/></svg><svg viewBox="0 0 4 4" x="800" y="173" width="57" height="57" shape-rendering="auto"><circle fill="#000000" cx="2" cy="2" r="1.75"/></svg><svg viewBox="0 0 4 4" x="914" y="173" width="57" height="57" shape-rendering="auto"><path fill="#000000" d="M2,.25a1.75,1.75,0,0,0,0,3.5H4V.25Z"/></svg><svg viewBox="0 0 4 4" x="971" y="173" width="57" height="57" shape-rendering="auto"><path fill="#000000" d="M2,3.75A1.75,1.75,0,0,0,2,.25H0v3.5Z"/></svg><svg viewBox="0 0 4 4" x="1199" y="173" width="57" height="57" shape-rendering="auto"><path fill="#000000" d="M2,.25a1.75,1.75,0,0,0,0,3.5H4V.25Z"/></svg><svg viewBox="0 0 4 4" x="1256" y="173" width="57" height="57" shape-rendering="auto"><path fill="#000000" d="M2,3.75A1.75,1.75,0,0,0,2,.25H0v3.5Z"/></svg><svg viewBox="0 0 4 4" x="629" y="230" width="57" height="57" shape-rendering="auto"><circle fill="#000000" cx="2" cy="2" r="1.75"/></svg><svg viewBox="0 0 4 4" x="857" y="230" width="57" height="57" shape-rendering="auto"><circle fill="#000000" cx="2" cy="2" r="1.75"/></svg><svg viewBox="0 0 4 4" x="971" y="230" width="57" height="57" shape-rendering="auto"><circle fill="#000000" cx="2" cy="2" r="1.75"/></svg><svg viewBox="0 0 4 4" x="1142" y="230" width="57" height="57" shape-rendering="auto"><circle fill="#000000" cx="2" cy="2" r="1.75"/></svg><svg viewBox="0 0 4 4" x="1256" y="230" width="57" height="57" shape-rendering="auto"><path fill="#000000" d="M2,.25a1.75,1.75,0,0,0,0,3.5H4V.25Z"/></svg><svg viewBox="0 0 4 4" x="1313" y="230" width="57" height="57" shape-rendering="auto"><path fill="#000000" d="M2,3.75A1.75,1.75,0,0,0,2,.25H0v3.5Z"/></svg><svg viewBox="0 0 4 4" x="629" y="287" width="57" height="57" shape-rendering="auto"><path fill="#000000" d="M2,.25a1.75,1.75,0,0,0,0,3.5H4V.25Z"/></svg><svg viewBox="0 0 4 4" x="686" y="287" width="57" height="57" shape-rendering="auto"><path fill="#000000" d="M2,3.75A1.75,1.75,0,0,0,2,.25H0v3.5Z"/></svg><svg viewBox="0 0 4 4" x="800" y="287" width="57" height="57" shape-rendering="auto"><path fill="#000000" d="M2,.25a1.75,1.75,0,0,0,0,3.5H4V.25Z"/></svg><svg viewBox="0 0 4 4" x="857" y="287" width="57" height="57" shape-rendering="auto"><rect fill="#000000" y="0.25" width="4" height="3.5"/></svg><svg viewBox="0 0 4 4" x="914" y="287" width="57" height="57" shape-rendering="auto"><path fill="#000000" d="M2,3.75A1.75,1.75,0,0,0,2,.25H0v3.5Z"/></svg><svg viewBox="0 0 4 4" x="1085" y="287" width="57" height="57" shape-rendering="auto"><circle fill="#000000" cx="2" cy="2" r="1.75"/></svg><svg viewBox="0 0 4 4" x="1256" y="287" width="57" height="57" shape-rendering="auto"><path fill="#000000" d="M2,.25a1.75,1.75,0,0,0,0,3.5H4V.25Z"/></svg><svg viewBox="0 0 4 4" x="1313" y="287" width="57" height="57" shape-rendering="auto"><path fill="#000000" d="M2,3.75A1.75,1.75,0,0,0,2,.25H0v3.5Z"/></svg><svg viewBox="0 0 4 4" x="743" y="344" width="57" height="57" shape-rendering="auto"><circle fill="#000000" cx="2" cy="2" r="1.75"/></svg><svg viewBox="0 0 4 4" x="914" y="344" width="57" height="57" shape-rendering="auto"><path fill="#000000" d="M2,.25a1.75,1.75,0,0,0,0,3.5H4V.25Z"/></svg><svg viewBox="0 0 4 4" x="971" y="344" width="57" height="57" shape-rendering="auto"><rect fill="#000000" y="0.25" width="4" height="3.5"/></svg><svg viewBox="0 0 4 4" x="1028" y="344" width="57" height="57" shape-rendering="auto"><path fill="#000000" d="M2,3.75A1.75,1.75,0,0,0,2,.25H0v3.5Z"/></svg><svg viewBox="0 0 4 4" x="1142" y="344" width="57" height="57" shape-rendering="auto"><path fill="#000000" d="M2,.25a1.75,1.75,0,0,0,0,3.5H4V.25Z"/></svg><svg viewBox="0 0 4 4" x="1199" y="344" width="57" height="57" shape-rendering="auto"><path fill="#000000" d="M2,3.75A1.75,1.75,0,0,0,2,.25H0v3.5Z"/></svg><svg viewBox="0 0 4 4" x="1313" y="344" width="57" height="57" shape-rendering="auto"><circle fill="#000000" cx="2" cy="2" r="1.75"/></svg><svg viewBox="0 0 4 4" x="686" y="401" width="57" height="57" shape-rendering="auto"><path fill="#000000" d="M2,.25a1.75,1.75,0,0,0,0,3.5H4V.25Z"/></svg><svg viewBox="0 0 4 4" x="743" y="401" width="57" height="57" shape-rendering="auto"><path fill="#000000" d="M2,3.75A1.75,1.75,0,0,0,2,.25H0v3.5Z"/></svg><svg viewBox="0 0 4 4" x="857" y="401" width="57" height="57" shape-rendering="auto"><circle fill="#000000" cx="2" cy="2" r="1.75"/></svg><svg viewBox="0 0 4 4" x="1199" y="401" width="57" height="57" shape-rendering="auto"><circle fill="#000000" cx="2" cy="2" r="1.75"/></svg><svg viewBox="0 0 4 4" x="629" y="458" width="57" height="57" shape-rendering="auto"><circle fill="#000000" cx="2" cy="2" r="1.75"/></svg><svg viewBox="0 0 4 4" x="857" y="458" width="57" height="57" shape-rendering="auto"><path fill="#000000" d="M2,.25a1.75,1.75,0,0,0,0,3.5H4V.25Z"/></svg><svg viewBox="0 0 4 4" x="914" y="458" width="57" height="57" shape-rendering="auto"><path fill="#000000" d="M2,3.75A1.75,1.75,0,0,0,2,.25H0v3.5Z"/></svg><svg viewBox="0 0 4 4" x="1028" y="458" width="57" height="57" shape-rendering="auto"><circle fill="#000000" cx="2" cy="2" r="1.75"/></svg><svg viewBox="0 0 4 4" x="1199" y="458" width="57" height="57" shape-rendering="auto"><circle fill="#000000" cx="2" cy="2" r="1.75"/></svg><svg viewBox="0 0 4 4" x="1313" y="458" width="57" height="57" shape-rendering="auto"><circle fill="#000000" cx="2" cy="2" r="1.75"/></svg><svg viewBox="0 0 4 4" x="629" y="515" width="57" height="57" shape-rendering="auto"><circle fill="#000000" cx="2" cy="2" r="1.75"/></svg><svg viewBox="0 0 4 4" x="743" y="515" width="57" height="57" shape-rendering="auto"><circle fill="#000000" cx="2" cy="2" r="1.75"/></svg><svg viewBox="0 0 4 4" x="857" y="515" width="57" height="57" shape-rendering="auto"><circle fill="#000000" cx="2" cy="2" r="1.75"/></svg><svg viewBox="0 0 4 4" x="971" y="515" width="57" height="57" shape-rendering="auto"><circle fill="#000000" cx="2" cy="2" r="1.75"/></svg><svg viewBox="0 0 4 4" x="1085" y="515" width="57" height="57" shape-rendering="auto"><circle fill="#000000" cx="2" cy="2" r="1.75"/></svg><svg viewBox="0 0 4 4" x="1199" y="515" width="57" height="57" shape-rendering="auto"><circle fill="#000000" cx="2" cy="2" r="1.75"/></svg><svg viewBox="0 0 4 4" x="1313" y="515" width="57" height="57" shape-rendering="auto"><circle fill="#000000" cx="2" cy="2" r="1.75"/></svg><svg viewBox="0 0 4 4" x="629" y="572" width="57" height="57" shape-rendering="auto"><path fill="#000000" d="M2,.25a1.75,1.75,0,0,0,0,3.5H4V.25Z"/></svg><svg viewBox="0 0 4 4" x="686" y="572" width="57" height="57" shape-rendering="auto"><rect fill="#000000" y="0.25" width="4" height="3.5"/></svg><svg viewBox="0 0 4 4" x="743" y="572" width="57" height="57" shape-rendering="auto"><path fill="#000000" d="M2,3.75A1.75,1.75,0,0,0,2,.25H0v3.5Z"/></svg><svg viewBox="0 0 4 4" x="1028" y="572" width="57" height="57" shape-rendering="auto"><path fill="#000000" d="M2,.25a1.75,1.75,0,0,0,0,3.5H4V.25Z"/></svg><svg viewBox="0 0 4 4" x="1085" y="572" width="57" height="57" shape-rendering="auto"><path fill="#000000" d="M2,3.75A1.75,1.75,0,0,0,2,.25H0v3.5Z"/></svg><svg viewBox="0 0 4 4" x="1199" y="572" width="57" height="57" shape-rendering="auto"><path fill="#000000" d="M2,.25a1.75,1.75,0,0,0,0,3.5H4V.25Z"/></svg><svg viewBox="0 0 4 4" x="1256" y="572" width="57" height="57" shape-rendering="auto"><rect fill="#000000" y="0.25" width="4" height="3.5"/></svg><svg viewBox="0 0 4 4" x="1313" y="572" width="57" height="57" shape-rendering="auto"><path fill="#000000" d="M2,3.75A1.75,1.75,0,0,0,2,.25H0v3.5Z"/></svg><svg viewBox="0 0 4 4" x="287" y="629" width="57" height="57" shape-rendering="auto"><path fill="#000000" d="M2,.25a1.75,1.75,0,0,0,0,3.5H4V.25Z"/></svg><svg viewBox="0 0 4 4" x="344" y="629" width="57" height="57" shape-rendering="auto"><rect fill="#000000" y="0.25" width="4" height="3.5"/></svg><svg viewBox="0 0 4 4" x="401" y="629" width="57" height="57" shape-rendering="auto"><path fill="#000000" d="M2,3.75A1.75,1.75,0,0,0,2,.25H0v3.5Z"/></svg><svg viewBox="0 0 4 4" x="515" y="629" width="57" height="57" shape-rendering="auto"><circle fill="#000000" cx="2" cy="2" r="1.75"/></svg><svg viewBox="0 0 4 4" x="629" y="629" width="57" height="57" shape-rendering="auto"><path fill="#000000" d="M2,.25a1.75,1.75,0,0,0,0,3.5H4V.25Z"/></svg><svg viewBox="0 0 4 4" x="686" y="629" width="57" height="57" shape-rendering="auto"><rect fill="#000000" y="0.25" width="4" height="3.5"/></svg><svg viewBox="0 0 4 4" x="743" y="629" width="57" height="57" shape-rendering="auto"><rect fill="#000000" y="0.25" width="4" height="3.5"/></svg><svg viewBox="0 0 4 4" x="800" y="629" width="57" height="57" shape-rendering="auto"><path fill="#000000" d="M2,3.75A1.75,1.75,0,0,0,2,.25H0v3.5Z"/></svg><svg viewBox="0 0 4 4" x="971" y="629" width="57" height="57" shape-rendering="auto"><circle fill="#000000" cx="2" cy="2" r="1.75"/></svg><svg viewBox="0 0 4 4" x="1199" y="629" width="57" height="57" shape-rendering="auto"><circle fill="#000000" cx="2" cy="2" r="1.75"/></svg><svg viewBox="0 0 4 4" x="1313" y="629" width="57" height="57" shape-rendering="auto"><path fill="#000000" d="M2,.25a1.75,1.75,0,0,0,0,3.5H4V.25Z"/></svg><svg viewBox="0 0 4 4" x="1370" y="629" width="57" height="57" shape-rendering="auto"><rect fill="#000000" y="0.25" width="4" height="3.5"/></svg><svg viewBox="0 0 4 4" x="1427" y="629" width="57" height="57" shape-rendering="auto"><rect fill="#000000" y="0.25" width="4" height="3.5"/></svg><svg viewBox="0 0 4 4" x="1484" y="629" width="57" height="57" shape-rendering="auto"><path fill="#000000" d="M2,3.75A1.75,1.75,0,0,0,2,.25H0v3.5Z"/></svg><svg viewBox="0 0 4 4" x="1655" y="629" width="57" height="57" shape-rendering="auto"><path fill="#000000" d="M2,.25a1.75,1.75,0,0,0,0,3.5H4V.25Z"/></svg><svg viewBox="0 0 4 4" x="1712" y="629" width="57" height="57" shape-rendering="auto"><rect fill="#000000" y="0.25" width="4" height="3.5"/></svg><svg viewBox="0 0 4 4" x="1769" y="629" width="57" height="57" shape-rendering="auto"><path fill="#000000" d="M2,3.75A1.75,1.75,0,0,0,2,.25H0v3.5Z"/></svg><svg viewBox="0 0 4 4" x="173" y="686" width="57" height="57" shape-rendering="auto"><path fill="#000000" d="M2,.25a1.75,1.75,0,0,0,0,3.5H4V.25Z"/></svg><svg viewBox="0 0 4 4" x="230" y="686" width="57" height="57" shape-rendering="auto"><rect fill="#000000" y="0.25" width="4" height="3.5"/></svg><svg viewBox="0 0 4 4" x="287" y="686" width="57" height="57" shape-rendering="auto"><path fill="#000000" d="M2,3.75A1.75,1.75,0,0,0,2,.25H0v3.5Z"/></svg><svg viewBox="0 0 4 4" x="401" y="686" width="57" height="57" shape-rendering="auto"><circle fill="#000000" cx="2" cy="2" r="1.75"/></svg><svg viewBox="0 0 4 4" x="572" y="686" width="57" height="57" shape-rendering="auto"><path fill="#000000" d="M2,.25a1.75,1.75,0,0,0,0,3.5H4V.25Z"/></svg><svg viewBox="0 0 4 4" x="629" y="686" width="57" height="57" shape-rendering="auto"><path fill="#000000" d="M2,3.75A1.75,1.75,0,0,0,2,.25H0v3.5Z"/></svg><svg viewBox="0 0 4 4" x="743" y="686" width="57" height="57" shape-rendering="auto"><circle fill="#000000" cx="2" cy="2" r="1.75"/></svg><svg viewBox="0 0 4 4" x="857" y="686" width="57" height="57" shape-rendering="auto"><path fill="#000000" d="M2,.25a1.75,1.75,0,0,0,0,3.5H4V.25Z"/></svg><svg viewBox="0 0 4 4" x="914" y="686" width="57" height="57" shape-rendering="auto"><rect fill="#000000" y="0.25" width="4" height="3.5"/></svg><svg viewBox="0 0 4 4" x="971" y="686" width="57" height="57" shape-rendering="auto"><path fill="#000000" d="M2,3.75A1.75,1.75,0,0,0,2,.25H0v3.5Z"/></svg><svg viewBox="0 0 4 4" x="1142" y="686" width="57" height="57" shape-rendering="auto"><path fill="#000000" d="M2,.25a1.75,1.75,0,0,0,0,3.5H4V.25Z"/></svg><svg viewBox="0 0 4 4" x="1199" y="686" width="57" height="57" shape-rendering="auto"><rect fill="#000000" y="0.25" width="4" height="3.5"/></svg><svg viewBox="0 0 4 4" x="1256" y="686" width="57" height="57" shape-rendering="auto"><path fill="#000000" d="M2,3.75A1.75,1.75,0,0,0,2,.25H0v3.5Z"/></svg><svg viewBox="0 0 4 4" x="1370" y="686" width="57" height="57" shape-rendering="auto"><path fill="#000000" d="M2,.25a1.75,1.75,0,0,0,0,3.5H4V.25Z"/></svg><svg viewBox="0 0 4 4" x="1427" y="686" width="57" height="57" shape-rendering="auto"><path fill="#000000" d="M2,3.75A1.75,1.75,0,0,0,2,.25H0v3.5Z"/></svg><svg viewBox="0 0 4 4" x="1541" y="686" width="57" height="57" shape-rendering="auto"><circle fill="#000000" cx="2" cy="2" r="1.75"/></svg><svg viewBox="0 0 4 4" x="1712" y="686" width="57" height="57" shape-rendering="auto"><path fill="#000000" d="M2,.25a1.75,1.75,0,0,0,0,3.5H4V.25Z"/></svg><svg viewBox="0 0 4 4" x="1769" y="686" width="57" height="57" shape-rendering="auto"><path fill="#000000" d="M2,3.75A1.75,1.75,0,0,0,2,.25H0v3.5Z"/></svg><svg viewBox="0 0 4 4" x="230" y="743" width="57" height="57" shape-rendering="auto"><circle fill="#000000" cx="2" cy="2" r="1.75"/></svg><svg viewBox="0 0 4 4" x="344" y="743" width="57" height="57" shape-rendering="auto"><path fill="#000000" d="M2,.25a1.75,1.75,0,0,0,0,3.5H4V.25Z"/></svg><svg viewBox="0 0 4 4" x="401" y="743" width="57" height="57" shape-rendering="auto"><rect fill="#000000" y="0.25" width="4" height="3.5"/></svg><svg viewBox="0 0 4 4" x="458" y="743" width="57" height="57" shape-rendering="auto"><rect fill="#000000" y="0.25" width="4" height="3.5"/></svg><svg viewBox="0 0 4 4" x="515" y="743" width="57" height="57" shape-rendering="auto"><rect fill="#000000" y="0.25" width="4" height="3.5"/></svg><svg viewBox="0 0 4 4" x="572" y="743" width="57" height="57" shape-rendering="auto"><path fill="#000000" d="M2,3.75A1.75,1.75,0,0,0,2,.25H0v3.5Z"/></svg><svg viewBox="0 0 4 4" x="1313" y="743" width="57" height="57" shape-rendering="auto"><circle fill="#000000" cx="2" cy="2" r="1.75"/></svg><svg viewBox="0 0 4 4" x="1655" y="743" width="57" height="57" shape-rendering="auto"><circle fill="#000000" cx="2" cy="2" r="1.75"/></svg><svg viewBox="0 0 4 4" x="344" y="800" width="57" height="57" shape-rendering="auto"><path fill="#000000" d="M2,.25a1.75,1.75,0,0,0,0,3.5H4V.25Z"/></svg><svg viewBox="0 0 4 4" x="401" y="800" width="57" height="57" shape-rendering="auto"><rect fill="#000000" y="0.25" width="4" height="3.5"/></svg><svg viewBox="0 0 4 4" x="458" y="800" width="57" height="57" shape-rendering="auto"><path fill="#000000" d="M2,3.75A1.75,1.75,0,0,0,2,.25H0v3.5Z"/></svg><svg viewBox="0 0 4 4" x="686" y="800" width="57" height="57" shape-rendering="auto"><circle fill="#000000" cx="2" cy="2" r="1.75"/></svg><svg viewBox="0 0 4 4" x="1256" y="800" width="57" height="57" shape-rendering="auto"><path fill="#000000" d="M2,.25a1.75,1.75,0,0,0,0,3.5H4V.25Z"/></svg><svg viewBox="0 0 4 4" x="1313" y="800" width="57" height="57" shape-rendering="auto"><path fill="#000000" d="M2,3.75A1.75,1.75,0,0,0,2,.25H0v3.5Z"/></svg><svg viewBox="0 0 4 4" x="1427" y="800" width="57" height="57" shape-rendering="auto"><path fill="#000000" d="M2,.25a1.75,1.75,0,0,0,0,3.5H4V.25Z"/></svg><svg viewBox="0 0 4 4" x="1484" y="800" width="57" height="57" shape-rendering="auto"><rect fill="#000000" y="0.25" width="4" height="3.5"/></svg><svg viewBox="0 0 4 4" x="1541" y="800" width="57" height="57" shape-rendering="auto"><rect fill="#000000" y="0.25" width="4" height="3.5"/></svg><svg viewBox="0 0 4 4" x="1598" y="800" width="57" height="57" shape-rendering="auto"><rect fill="#000000" y="0.25" width="4" height="3.5"/></svg><svg viewBox="0 0 4 4" x="1655" y="800" width="57" height="57" shape-rendering="auto"><path fill="#000000" d="M2,3.75A1.75,1.75,0,0,0,2,.25H0v3.5Z"/></svg><svg viewBox="0 0 4 4" x="173" y="857" width="57" height="57" shape-rendering="auto"><path fill="#000000" d="M2,.25a1.75,1.75,0,0,0,0,3.5H4V.25Z"/></svg><svg viewBox="0 0 4 4" x="230" y="857" width="57" height="57" shape-rendering="auto"><path fill="#000000" d="M2,3.75A1.75,1.75,0,0,0,2,.25H0v3.5Z"/></svg><svg viewBox="0 0 4 4" x="458" y="857" width="57" height="57" shape-rendering="auto"><path fill="#000000" d="M2,.25a1.75,1.75,0,0,0,0,3.5H4V.25Z"/></svg><svg viewBox="0 0 4 4" x="515" y="857" width="57" height="57" shape-rendering="auto"><rect fill="#000000" y="0.25" width="4" height="3.5"/></svg><svg viewBox="0 0 4 4" x="572" y="857" width="57" height="57" shape-rendering="auto"><path fill="#000000" d="M2,3.75A1.75,1.75,0,0,0,2,.25H0v3.5Z"/></svg><svg viewBox="0 0 4 4" x="1313" y="857" width="57" height="57" shape-rendering="auto"><path fill="#000000" d="M2,.25a1.75,1.75,0,0,0,0,3.5H4V.25Z"/></svg><svg viewBox="0 0 4 4" x="1370" y="857" width="57" height="57" shape-rendering="auto"><path fill="#000000" d="M2,3.75A1.75,1.75,0,0,0,2,.25H0v3.5Z"/></svg><svg viewBox="0 0 4 4" x="1541" y="857" width="57" height="57" shape-rendering="auto"><circle fill="#000000" cx="2" cy="2" r="1.75"/></svg><svg viewBox="0 0 4 4" x="1655" y="857" width="57" height="57" shape-rendering="auto"><path fill="#000000" d="M2,.25a1.75,1.75,0,0,0,0,3.5H4V.25Z"/></svg><svg viewBox="0 0 4 4" x="1712" y="857" width="57" height="57" shape-rendering="auto"><path fill="#000000" d="M2,3.75A1.75,1.75,0,0,0,2,.25H0v3.5Z"/></svg><svg viewBox="0 0 4 4" x="401" y="914" width="57" height="57" shape-rendering="auto"><circle fill="#000000" cx="2" cy="2" r="1.75"/></svg><svg viewBox="0 0 4 4" x="572" y="914" width="57" height="57" shape-rendering="auto"><path fill="#000000" d="M2,.25a1.75,1.75,0,0,0,0,3.5H4V.25Z"/></svg><svg viewBox="0 0 4 4" x="629" y="914" width="57" height="57" shape-rendering="auto"><path fill="#000000" d="M2,3.75A1.75,1.75,0,0,0,2,.25H0v3.5Z"/></svg><svg viewBox="0 0 4 4" x="1256" y="914" width="57" height="57" shape-rendering="auto"><path fill="#000000" d="M2,.25a1.75,1.75,0,0,0,0,3.5H4V.25Z"/></svg><svg viewBox="0 0 4 4" x="1313" y="914" width="57" height="57" shape-rendering="auto"><path fill="#000000" d="M2,3.75A1.75,1.75,0,0,0,2,.25H0v3.5Z"/></svg><svg viewBox="0 0 4 4" x="1427" y="914" width="57" height="57" shape-rendering="auto"><circle fill="#000000" cx="2" cy="2" r="1.75"/></svg><svg viewBox="0 0 4 4" x="1541" y="914" width="57" height="57" shape-rendering="auto"><path fill="#000000" d="M2,.25a1.75,1.75,0,0,0,0,3.5H4V.25Z"/></svg><svg viewBox="0 0 4 4" x="1598" y="914" width="57" height="57" shape-rendering="auto"><path fill="#000000" d="M2,3.75A1.75,1.75,0,0,0,2,.25H0v3.5Z"/></svg><svg viewBox="0 0 4 4" x="1769" y="914" width="57" height="57" shape-rendering="auto"><circle fill="#000000" cx="2" cy="2" r="1.75"/></svg><svg viewBox="0 0 4 4" x="230" y="971" width="57" height="57" shape-rendering="auto"><circle fill="#000000" cx="2" cy="2" r="1.75"/></svg><svg viewBox="0 0 4 4" x="344" y="971" width="57" height="57" shape-rendering="auto"><circle fill="#000000" cx="2" cy="2" r="1.75"/></svg><svg viewBox="0 0 4 4" x="458" y="971" width="57" height="57" shape-rendering="auto"><path fill="#000000" d="M2,.25a1.75,1.75,0,0,0,0,3.5H4V.25Z"/></svg><svg viewBox="0 0 4 4" x="515" y="971" width="57" height="57" shape-rendering="auto"><rect fill="#000000" y="0.25" width="4" height="3.5"/></svg><svg viewBox="0 0 4 4" x="572" y="971" width="57" height="57" shape-rendering="auto"><rect fill="#000000" y="0.25" width="4" height="3.5"/></svg><svg viewBox="0 0 4 4" x="629" y="971" width="57" height="57" shape-rendering="auto"><rect fill="#000000" y="0.25" width="4" height="3.5"/></svg><svg viewBox="0 0 4 4" x="686" y="971" width="57" height="57" shape-rendering="auto"><path fill="#000000" d="M2,3.75A1.75,1.75,0,0,0,2,.25H0v3.5Z"/></svg><svg viewBox="0 0 4 4" x="1256" y="971" width="57" height="57" shape-rendering="auto"><circle fill="#000000" cx="2" cy="2" r="1.75"/></svg><svg viewBox="0 0 4 4" x="1484" y="971" width="57" height="57" shape-rendering="auto"><circle fill="#000000" cx="2" cy="2" r="1.75"/></svg><svg viewBox="0 0 4 4" x="1655" y="971" width="57" height="57" shape-rendering="auto"><circle fill="#000000" cx="2" cy="2" r="1.75"/></svg><svg viewBox="0 0 4 4" x="1769" y="971" width="57" height="57" shape-rendering="auto"><circle fill="#000000" cx="2" cy="2" r="1.75"/></svg><svg viewBox="0 0 4 4" x="173" y="1028" width="57" height="57" shape-rendering="auto"><circle fill="#000000" cx="2" cy="2" r="1.75"/></svg><svg viewBox="0 0 4 4" x="287" y="1028" width="57" height="57" shape-rendering="auto"><circle fill="#000000" cx="2" cy="2" r="1.75"/></svg><svg viewBox="0 0 4 4" x="458" y="1028" width="57" height="57" shape-rendering="auto"><circle fill="#000000" cx="2" cy="2" r="1.75"/></svg><svg viewBox="0 0 4 4" x="572" y="1028" width="57" height="57" shape-rendering="auto"><circle fill="#000000" cx="2" cy="2" r="1.75"/></svg><svg viewBox="0 0 4 4" x="1256" y="1028" width="57" height="57" shape-rendering="auto"><circle fill="#000000" cx="2" cy="2" r="1.75"/></svg><svg viewBox="0 0 4 4" x="1370" y="1028" width="57" height="57" shape-rendering="auto"><path fill="#000000" d="M2,.25a1.75,1.75,0,0,0,0,3.5H4V.25Z"/></svg><svg viewBox="0 0 4 4" x="1427" y="1028" width="57" height="57" shape-rendering="auto"><rect fill="#000000" y="0.25" width="4" height="3.5"/></svg><svg viewBox="0 0 4 4" x="1484" y="1028" width="57" height="57" shape-rendering="auto"><rect fill="#000000" y="0.25" width="4" height="3.5"/></svg><svg viewBox="0 0 4 4" x="1541" y="1028" width="57" height="57" shape-rendering="auto"><path fill="#000000" d="M2,3.75A1.75,1.75,0,0,0,2,.25H0v3.5Z"/></svg><svg viewBox="0 0 4 4" x="1655" y="1028" width="57" height="57" shape-rendering="auto"><path fill="#000000" d="M2,.25a1.75,1.75,0,0,0,0,3.5H4V.25Z"/></svg><svg viewBox="0 0 4 4" x="1712" y="1028" width="57" height="57" shape-rendering="auto"><rect fill="#000000" y="0.25" width="4" height="3.5"/></svg><svg viewBox="0 0 4 4" x="1769" y="1028" width="57" height="57" shape-rendering="auto"><path fill="#000000" d="M2,3.75A1.75,1.75,0,0,0,2,.25H0v3.5Z"/></svg><svg viewBox="0 0 4 4" x="173" y="1085" width="57" height="57" shape-rendering="auto"><path fill="#000000" d="M2,.25a1.75,1.75,0,0,0,0,3.5H4V.25Z"/></svg><svg viewBox="0 0 4 4" x="230" y="1085" width="57" height="57" shape-rendering="auto"><path fill="#000000" d="M2,3.75A1.75,1.75,0,0,0,2,.25H0v3.5Z"/></svg><svg viewBox="0 0 4 4" x="344" y="1085" width="57" height="57" shape-rendering="auto"><circle fill="#000000" cx="2" cy="2" r="1.75"/></svg><svg viewBox="0 0 4 4" x="515" y="1085" width="57" height="57" shape-rendering="auto"><path fill="#000000" d="M2,.25a1.75,1.75,0,0,0,0,3.5H4V.25Z"/></svg><svg viewBox="0 0 4 4" x="572" y="1085" width="57" height="57" shape-rendering="auto"><rect fill="#000000" y="0.25" width="4" height="3.5"/></svg><svg viewBox="0 0 4 4" x="629" y="1085" width="57" height="57" shape-rendering="auto"><path fill="#000000" d="M2,3.75A1.75,1.75,0,0,0,2,.25H0v3.5Z"/></svg><svg viewBox="0 0 4 4" x="1313" y="1085" width="57" height="57" shape-rendering="auto"><circle fill="#000000" cx="2" cy="2" r="1.75"/></svg><svg viewBox="0 0 4 4" x="1484" y="1085" width="57" height="57" shape-rendering="auto"><circle fill="#000000" cx="2" cy="2" r="1.75"/></svg><svg viewBox="0 0 4 4" x="173" y="1142" width="57" height="57" shape-rendering="auto"><circle fill="#000000" cx="2" cy="2" r="1.75"/></svg><svg viewBox="0 0 4 4" x="572" y="1142" width="57" height="57" shape-rendering="auto"><path fill="#000000" d="M2,.25a1.75,1.75,0,0,0,0,3.5H4V.25Z"/></svg><svg viewBox="0 0 4 4" x="629" y="1142" width="57" height="57" shape-rendering="auto"><rect fill="#000000" y="0.25" width="4" height="3.5"/></svg><svg viewBox="0 0 4 4" x="686" y="1142" width="57" height="57" shape-rendering="auto"><path fill="#000000" d="M2,3.75A1.75,1.75,0,0,0,2,.25H0v3.5Z"/></svg><svg viewBox="0 0 4 4" x="1370" y="1142" width="57" height="57" shape-rendering="auto"><circle fill="#000000" cx="2" cy="2" r="1.75"/></svg><svg viewBox="0 0 4 4" x="1484" y="1142" width="57" height="57" shape-rendering="auto"><circle fill="#000000" cx="2" cy="2" r="1.75"/></svg><svg viewBox="0 0 4 4" x="1598" y="1142" width="57" height="57" shape-rendering="auto"><circle fill="#000000" cx="2" cy="2" r="1.75"/></svg><svg viewBox="0 0 4 4" x="1712" y="1142" width="57" height="57" shape-rendering="auto"><circle fill="#000000" cx="2" cy="2" r="1.75"/></svg><svg viewBox="0 0 4 4" x="173" y="1199" width="57" height="57" shape-rendering="auto"><circle fill="#000000" cx="2" cy="2" r="1.75"/></svg><svg viewBox="0 0 4 4" x="401" y="1199" width="57" height="57" shape-rendering="auto"><circle fill="#000000" cx="2" cy="2" r="1.75"/></svg><svg viewBox="0 0 4 4" x="515" y="1199" width="57" height="57" shape-rendering="auto"><path fill="#000000" d="M2,.25a1.75,1.75,0,0,0,0,3.5H4V.25Z"/></svg><svg viewBox="0 0 4 4" x="572" y="1199" width="57" height="57" shape-rendering="auto"><path fill="#000000" d="M2,3.75A1.75,1.75,0,0,0,2,.25H0v3.5Z"/></svg><svg viewBox="0 0 4 4" x="686" y="1199" width="57" height="57" shape-rendering="auto"><circle fill="#000000" cx="2" cy="2" r="1.75"/></svg><svg viewBox="0 0 4 4" x="1313" y="1199" width="57" height="57" shape-rendering="auto"><path fill="#000000" d="M2,.25a1.75,1.75,0,0,0,0,3.5H4V.25Z"/></svg><svg viewBox="0 0 4 4" x="1370" y="1199" width="57" height="57" shape-rendering="auto"><path fill="#000000" d="M2,3.75A1.75,1.75,0,0,0,2,.25H0v3.5Z"/></svg><svg viewBox="0 0 4 4" x="1655" y="1199" width="57" height="57" shape-rendering="auto"><circle fill="#000000" cx="2" cy="2" r="1.75"/></svg><svg viewBox="0 0 4 4" x="173" y="1256" width="57" height="57" shape-rendering="auto"><circle fill="#000000" cx="2" cy="2" r="1.75"/></svg><svg viewBox="0 0 4 4" x="458" y="1256" width="57" height="57" shape-rendering="auto"><circle fill="#000000" cx="2" cy="2" r="1.75"/></svg><svg viewBox="0 0 4 4" x="572" y="1256" width="57" height="57" shape-rendering="auto"><path fill="#000000" d="M2,.25a1.75,1.75,0,0,0,0,3.5H4V.25Z"/></svg><svg viewBox="0 0 4 4" x="629" y="1256" width="57" height="57" shape-rendering="auto"><path fill="#000000" d="M2,3.75A1.75,1.75,0,0,0,2,.25H0v3.5Z"/></svg><svg viewBox="0 0 4 4" x="800" y="1256" width="57" height="57" shape-rendering="auto"><circle fill="#000000" cx="2" cy="2" r="1.75"/></svg><svg viewBox="0 0 4 4" x="914" y="1256" width="57" height="57" shape-rendering="auto"><circle fill="#000000" cx="2" cy="2" r="1.75"/></svg><svg viewBox="0 0 4 4" x="1142" y="1256" width="57" height="57" shape-rendering="auto"><circle fill="#000000" cx="2" cy="2" r="1.75"/></svg><svg viewBox="0 0 4 4" x="1256" y="1256" width="57" height="57" shape-rendering="auto"><path fill="#000000" d="M2,.25a1.75,1.75,0,0,0,0,3.5H4V.25Z"/></svg><svg viewBox="0 0 4 4" x="1313" y="1256" width="57" height="57" shape-rendering="auto"><path fill="#000000" d="M2,3.75A1.75,1.75,0,0,0,2,.25H0v3.5Z"/></svg><svg viewBox="0 0 4 4" x="1427" y="1256" width="57" height="57" shape-rendering="auto"><circle fill="#000000" cx="2" cy="2" r="1.75"/></svg><svg viewBox="0 0 4 4" x="1541" y="1256" width="57" height="57" shape-rendering="auto"><path fill="#000000" d="M2,.25a1.75,1.75,0,0,0,0,3.5H4V.25Z"/></svg><svg viewBox="0 0 4 4" x="1598" y="1256" width="57" height="57" shape-rendering="auto"><path fill="#000000" d="M2,3.75A1.75,1.75,0,0,0,2,.25H0v3.5Z"/></svg><svg viewBox="0 0 4 4" x="1712" y="1256" width="57" height="57" shape-rendering="auto"><path fill="#000000" d="M2,.25a1.75,1.75,0,0,0,0,3.5H4V.25Z"/></svg><svg viewBox="0 0 4 4" x="1769" y="1256" width="57" height="57" shape-rendering="auto"><path fill="#000000" d="M2,3.75A1.75,1.75,0,0,0,2,.25H0v3.5Z"/></svg><svg viewBox="0 0 4 4" x="173" y="1313" width="57" height="57" shape-rendering="auto"><circle fill="#000000" cx="2" cy="2" r="1.75"/></svg><svg viewBox="0 0 4 4" x="344" y="1313" width="57" height="57" shape-rendering="auto"><circle fill="#000000" cx="2" cy="2" r="1.75"/></svg><svg viewBox="0 0 4 4" x="515" y="1313" width="57" height="57" shape-rendering="auto"><circle fill="#000000" cx="2" cy="2" r="1.75"/></svg><svg viewBox="0 0 4 4" x="800" y="1313" width="57" height="57" shape-rendering="auto"><path fill="#000000" d="M2,.25a1.75,1.75,0,0,0,0,3.5H4V.25Z"/></svg><svg viewBox="0 0 4 4" x="857" y="1313" width="57" height="57" shape-rendering="auto"><rect fill="#000000" y="0.25" width="4" height="3.5"/></svg><svg viewBox="0 0 4 4" x="914" y="1313" width="57" height="57" shape-rendering="auto"><path fill="#000000" d="M2,3.75A1.75,1.75,0,0,0,2,.25H0v3.5Z"/></svg><svg viewBox="0 0 4 4" x="1028" y="1313" width="57" height="57" shape-rendering="auto"><circle fill="#000000" cx="2" cy="2" r="1.75"/></svg><svg viewBox="0 0 4 4" x="1199" y="1313" width="57" height="57" shape-rendering="auto"><circle fill="#000000" cx="2" cy="2" r="1.75"/></svg><svg viewBox="0 0 4 4" x="1313" y="1313" width="57" height="57" shape-rendering="auto"><path fill="#000000" d="M2,.25a1.75,1.75,0,0,0,0,3.5H4V.25Z"/></svg><svg viewBox="0 0 4 4" x="1370" y="1313" width="57" height="57" shape-rendering="auto"><rect fill="#000000" y="0.25" width="4" height="3.5"/></svg><svg viewBox="0 0 4 4" x="1427" y="1313" width="57" height="57" shape-rendering="auto"><rect fill="#000000" y="0.25" width="4" height="3.5"/></svg><svg viewBox="0 0 4 4" x="1484" y="1313" width="57" height="57" shape-rendering="auto"><rect fill="#000000" y="0.25" width="4" height="3.5"/></svg><svg viewBox="0 0 4 4" x="1541" y="1313" width="57" height="57" shape-rendering="auto"><path fill="#000000" d="M2,3.75A1.75,1.75,0,0,0,2,.25H0v3.5Z"/></svg><svg viewBox="0 0 4 4" x="1712" y="1313" width="57" height="57" shape-rendering="auto"><path fill="#000000" d="M2,.25a1.75,1.75,0,0,0,0,3.5H4V.25Z"/></svg><svg viewBox="0 0 4 4" x="1769" y="1313" width="57" height="57" shape-rendering="auto"><path fill="#000000" d="M2,3.75A1.75,1.75,0,0,0,2,.25H0v3.5Z"/></svg><svg viewBox="0 0 4 4" x="629" y="1370" width="57" height="57" shape-rendering="auto"><circle fill="#000000" cx="2" cy="2" r="1.75"/></svg><svg viewBox="0 0 4 4" x="857" y="1370" width="57" height="57" shape-rendering="auto"><path fill="#000000" d="M2,.25a1.75,1.75,0,0,0,0,3.5H4V.25Z"/></svg><svg viewBox="0 0 4 4" x="914" y="1370" width="57" height="57" shape-rendering="auto"><rect fill="#000000" y="0.25" width="4" height="3.5"/></svg><svg viewBox="0 0 4 4" x="971" y="1370" width="57" height="57" shape-rendering="auto"><rect fill="#000000" y="0.25" width="4" height="3.5"/></svg><svg viewBox="0 0 4 4" x="1028" y="1370" width="57" height="57" shape-rendering="auto"><rect fill="#000000" y="0.25" width="4" height="3.5"/></svg><svg viewBox="0 0 4 4" x="1085" y="1370" width="57" height="57" shape-rendering="auto"><path fill="#000000" d="M2,3.75A1.75,1.75,0,0,0,2,.25H0v3.5Z"/></svg><svg viewBox="0 0 4 4" x="1199" y="1370" width="57" height="57" shape-rendering="auto"><path fill="#000000" d="M2,.25a1.75,1.75,0,0,0,0,3.5H4V.25Z"/></svg><svg viewBox="0 0 4 4" x="1256" y="1370" width="57" height="57" shape-rendering="auto"><rect fill="#000000" y="0.25" width="4" height="3.5"/></svg><svg viewBox="0 0 4 4" x="1313" y="1370" width="57" height="57" shape-rendering="auto"><path fill="#000000" d="M2,3.75A1.75,1.75,0,0,0,2,.25H0v3.5Z"/></svg><svg viewBox="0 0 4 4" x="1541" y="1370" width="57" height="57" shape-rendering="auto"><path fill="#000000" d="M2,.25a1.75,1.75,0,0,0,0,3.5H4V.25Z"/></svg><svg viewBox="0 0 4 4" x="1598" y="1370" width="57" height="57" shape-rendering="auto"><path fill="#000000" d="M2,3.75A1.75,1.75,0,0,0,2,.25H0v3.5Z"/></svg><svg viewBox="0 0 4 4" x="1769" y="1370" width="57" height="57" shape-rendering="auto"><circle fill="#000000" cx="2" cy="2" r="1.75"/></svg><svg viewBox="0 0 4 4" x="914" y="1427" width="57" height="57" shape-rendering="auto"><circle fill="#000000" cx="2" cy="2" r="1.75"/></svg><svg viewBox="0 0 4 4" x="1256" y="1427" width="57" height="57" shape-rendering="auto"><path fill="#000000" d="M2,.25a1.75,1.75,0,0,0,0,3.5H4V.25Z"/></svg><svg viewBox="0 0 4 4" x="1313" y="1427" width="57" height="57" shape-rendering="auto"><path fill="#000000" d="M2,3.75A1.75,1.75,0,0,0,2,.25H0v3.5Z"/></svg><svg viewBox="0 0 4 4" x="1427" y="1427" width="57" height="57" shape-rendering="auto"><circle fill="#000000" cx="2" cy="2" r="1.75"/></svg><svg viewBox="0 0 4 4" x="1541" y="1427" width="57" height="57" shape-rendering="auto"><path fill="#000000" d="M2,.25a1.75,1.75,0,0,0,0,3.5H4V.25Z"/></svg><svg viewBox="0 0 4 4" x="1598" y="1427" width="57" height="57" shape-rendering="auto"><rect fill="#000000" y="0.25" width="4" height="3.5"/></svg><svg viewBox="0 0 4 4" x="1655" y="1427" width="57" height="57" shape-rendering="auto"><rect fill="#000000" y="0.25" width="4" height="3.5"/></svg><svg viewBox="0 0 4 4" x="1712" y="1427" width="57" height="57" shape-rendering="auto"><path fill="#000000" d="M2,3.75A1.75,1.75,0,0,0,2,.25H0v3.5Z"/></svg><svg viewBox="0 0 4 4" x="743" y="1484" width="57" height="57" shape-rendering="auto"><circle fill="#000000" cx="2" cy="2" r="1.75"/></svg><svg viewBox="0 0 4 4" x="914" y="1484" width="57" height="57" shape-rendering="auto"><circle fill="#000000" cx="2" cy="2" r="1.75"/></svg><svg viewBox="0 0 4 4" x="1256" y="1484" width="57" height="57" shape-rendering="auto"><path fill="#000000" d="M2,.25a1.75,1.75,0,0,0,0,3.5H4V.25Z"/></svg><svg viewBox="0 0 4 4" x="1313" y="1484" width="57" height="57" shape-rendering="auto"><path fill="#000000" d="M2,3.75A1.75,1.75,0,0,0,2,.25H0v3.5Z"/></svg><svg viewBox="0 0 4 4" x="1541" y="1484" width="57" height="57" shape-rendering="auto"><path fill="#000000" d="M2,.25a1.75,1.75,0,0,0,0,3.5H4V.25Z"/></svg><svg viewBox="0 0 4 4" x="1598" y="1484" width="57" height="57" shape-rendering="auto"><path fill="#000000" d="M2,3.75A1.75,1.75,0,0,0,2,.25H0v3.5Z"/></svg><svg viewBox="0 0 4 4" x="1712" y="1484" width="57" height="57" shape-rendering="auto"><path fill="#000000" d="M2,.25a1.75,1.75,0,0,0,0,3.5H4V.25Z"/></svg><svg viewBox="0 0 4 4" x="1769" y="1484" width="57" height="57" shape-rendering="auto"><path fill="#000000" d="M2,3.75A1.75,1.75,0,0,0,2,.25H0v3.5Z"/></svg><svg viewBox="0 0 4 4" x="629" y="1541" width="57" height="57" shape-rendering="auto"><circle fill="#000000" cx="2" cy="2" r="1.75"/></svg><svg viewBox="0 0 4 4" x="800" y="1541" width="57" height="57" shape-rendering="auto"><path fill="#000000" d="M2,.25a1.75,1.75,0,0,0,0,3.5H4V.25Z"/></svg><svg viewBox="0 0 4 4" x="857" y="1541" width="57" height="57" shape-rendering="auto"><rect fill="#000000" y="0.25" width="4" height="3.5"/></svg><svg viewBox="0 0 4 4" x="914" y="1541" width="57" height="57" shape-rendering="auto"><rect fill="#000000" y="0.25" width="4" height="3.5"/></svg><svg viewBox="0 0 4 4" x="971" y="1541" width="57" height="57" shape-rendering="auto"><rect fill="#000000" y="0.25" width="4" height="3.5"/></svg><svg viewBox="0 0 4 4" x="1028" y="1541" width="57" height="57" shape-rendering="auto"><path fill="#000000" d="M2,3.75A1.75,1.75,0,0,0,2,.25H0v3.5Z"/></svg><svg viewBox="0 0 4 4" x="1142" y="1541" width="57" height="57" shape-rendering="auto"><path fill="#000000" d="M2,.25a1.75,1.75,0,0,0,0,3.5H4V.25Z"/></svg><svg viewBox="0 0 4 4" x="1199" y="1541" width="57" height="57" shape-rendering="auto"><rect fill="#000000" y="0.25" width="4" height="3.5"/></svg><svg viewBox="0 0 4 4" x="1256" y="1541" width="57" height="57" shape-rendering="auto"><rect fill="#000000" y="0.25" width="4" height="3.5"/></svg><svg viewBox="0 0 4 4" x="1313" y="1541" width="57" height="57" shape-rendering="auto"><rect fill="#000000" y="0.25" width="4" height="3.5"/></svg><svg viewBox="0 0 4 4" x="1370" y="1541" width="57" height="57" shape-rendering="auto"><rect fill="#000000" y="0.25" width="4" height="3.5"/></svg><svg viewBox="0 0 4 4" x="1427" y="1541" width="57" height="57" shape-rendering="auto"><rect fill="#000000" y="0.25" width="4" height="3.5"/></svg><svg viewBox="0 0 4 4" x="1484" y="1541" width="57" height="57" shape-rendering="auto"><rect fill="#000000" y="0.25" width="4" height="3.5"/></svg><svg viewBox="0 0 4 4" x="1541" y="1541" width="57" height="57" shape-rendering="auto"><path fill="#000000" d="M2,3.75A1.75,1.75,0,0,0,2,.25H0v3.5Z"/></svg><svg viewBox="0 0 4 4" x="629" y="1598" width="57" height="57" shape-rendering="auto"><path fill="#000000" d="M2,.25a1.75,1.75,0,0,0,0,3.5H4V.25Z"/></svg><svg viewBox="0 0 4 4" x="686" y="1598" width="57" height="57" shape-rendering="auto"><rect fill="#000000" y="0.25" width="4" height="3.5"/></svg><svg viewBox="0 0 4 4" x="743" y="1598" width="57" height="57" shape-rendering="auto"><rect fill="#000000" y="0.25" width="4" height="3.5"/></svg><svg viewBox="0 0 4 4" x="800" y="1598" width="57" height="57" shape-rendering="auto"><rect fill="#000000" y="0.25" width="4" height="3.5"/></svg><svg viewBox="0 0 4 4" x="857" y="1598" width="57" height="57" shape-rendering="auto"><rect fill="#000000" y="0.25" width="4" height="3.5"/></svg><svg viewBox="0 0 4 4" x="914" y="1598" width="57" height="57" shape-rendering="auto"><path fill="#000000" d="M2,3.75A1.75,1.75,0,0,0,2,.25H0v3.5Z"/></svg><svg viewBox="0 0 4 4" x="1028" y="1598" width="57" height="57" shape-rendering="auto"><circle fill="#000000" cx="2" cy="2" r="1.75"/></svg><svg viewBox="0 0 4 4" x="1142" y="1598" width="57" height="57" shape-rendering="auto"><path fill="#000000" d="M2,.25a1.75,1.75,0,0,0,0,3.5H4V.25Z"/></svg><svg viewBox="0 0 4 4" x="1199" y="1598" width="57" height="57" shape-rendering="auto"><path fill="#000000" d="M2,3.75A1.75,1.75,0,0,0,2,.25H0v3.5Z"/></svg><svg viewBox="0 0 4 4" x="1313" y="1598" width="57" height="57" shape-rendering="auto"><path fill="#000000" d="M2,.25a1.75,1.75,0,0,0,0,3.5H4V.25Z"/></svg><svg viewBox="0 0 4 4" x="1370" y="1598" width="57" height="57" shape-rendering="auto"><rect fill="#000000" y="0.25" width="4" height="3.5"/></svg><svg viewBox="0 0 4 4" x="1427" y="1598" width="57" height="57" shape-rendering="auto"><path fill="#000000" d="M2,3.75A1.75,1.75,0,0,0,2,.25H0v3.5Z"/></svg><svg viewBox="0 0 4 4" x="1541" y="1598" width="57" height="57" shape-rendering="auto"><path fill="#000000" d="M2,.25a1.75,1.75,0,0,0,0,3.5H4V.25Z"/></svg><svg viewBox="0 0 4 4" x="1598" y="1598" width="57" height="57" shape-rendering="auto"><path fill="#000000" d="M2,3.75A1.75,1.75,0,0,0,2,.25H0v3.5Z"/></svg><svg viewBox="0 0 4 4" x="629" y="1655" width="57" height="57" shape-rendering="auto"><path fill="#000000" d="M2,.25a1.75,1.75,0,0,0,0,3.5H4V.25Z"/></svg><svg viewBox="0 0 4 4" x="686" y="1655" width="57" height="57" shape-rendering="auto"><path fill="#000000" d="M2,3.75A1.75,1.75,0,0,0,2,.25H0v3.5Z"/></svg><svg viewBox="0 0 4 4" x="914" y="1655" width="57" height="57" shape-rendering="auto"><path fill="#000000" d="M2,.25a1.75,1.75,0,0,0,0,3.5H4V.25Z"/></svg><svg viewBox="0 0 4 4" x="971" y="1655" width="57" height="57" shape-rendering="auto"><rect fill="#000000" y="0.25" width="4" height="3.5"/></svg><svg viewBox="0 0 4 4" x="1028" y="1655" width="57" height="57" shape-rendering="auto"><rect fill="#000000" y="0.25" width="4" height="3.5"/></svg><svg viewBox="0 0 4 4" x="1085" y="1655" width="57" height="57" shape-rendering="auto"><rect fill="#000000" y="0.25" width="4" height="3.5"/></svg><svg viewBox="0 0 4 4" x="1142" y="1655" width="57" height="57" shape-rendering="auto"><rect fill="#000000" y="0.25" width="4" height="3.5"/></svg><svg viewBox="0 0 4 4" x="1199" y="1655" width="57" height="57" shape-rendering="auto"><path fill="#000000" d="M2,3.75A1.75,1.75,0,0,0,2,.25H0v3.5Z"/></svg><svg viewBox="0 0 4 4" x="1370" y="1655" width="57" height="57" shape-rendering="auto"><path fill="#000000" d="M2,.25a1.75,1.75,0,0,0,0,3.5H4V.25Z"/></svg><svg viewBox="0 0 4 4" x="1427" y="1655" width="57" height="57" shape-rendering="auto"><rect fill="#000000" y="0.25" width="4" height="3.5"/></svg><svg viewBox="0 0 4 4" x="1484" y="1655" width="57" height="57" shape-rendering="auto"><rect fill="#000000" y="0.25" width="4" height="3.5"/></svg><svg viewBox="0 0 4 4" x="1541" y="1655" width="57" height="57" shape-rendering="auto"><path fill="#000000" d="M2,3.75A1.75,1.75,0,0,0,2,.25H0v3.5Z"/></svg><svg viewBox="0 0 4 4" x="1655" y="1655" width="57" height="57" shape-rendering="auto"><path fill="#000000" d="M2,.25a1.75,1.75,0,0,0,0,3.5H4V.25Z"/></svg><svg viewBox="0 0 4 4" x="1712" y="1655" width="57" height="57" shape-rendering="auto"><path fill="#000000" d="M2,3.75A1.75,1.75,0,0,0,2,.25H0v3.5Z"/></svg><svg viewBox="0 0 4 4" x="686" y="1712" width="57" height="57" shape-rendering="auto"><circle fill="#000000" cx="2" cy="2" r="1.75"/></svg><svg viewBox="0 0 4 4" x="800" y="1712" width="57" height="57" shape-rendering="auto"><path fill="#000000" d="M2,.25a1.75,1.75,0,0,0,0,3.5H4V.25Z"/></svg><svg viewBox="0 0 4 4" x="857" y="1712" width="57" height="57" shape-rendering="auto"><path fill="#000000" d="M2,3.75A1.75,1.75,0,0,0,2,.25H0v3.5Z"/></svg><svg viewBox="0 0 4 4" x="971" y="1712" width="57" height="57" shape-rendering="auto"><circle fill="#000000" cx="2" cy="2" r="1.75"/></svg><svg viewBox="0 0 4 4" x="1142" y="1712" width="57" height="57" shape-rendering="auto"><path fill="#000000" d="M2,.25a1.75,1.75,0,0,0,0,3.5H4V.25Z"/></svg><svg viewBox="0 0 4 4" x="1199" y="1712" width="57" height="57" shape-rendering="auto"><path fill="#000000" d="M2,3.75A1.75,1.75,0,0,0,2,.25H0v3.5Z"/></svg><svg viewBox="0 0 4 4" x="1313" y="1712" width="57" height="57" shape-rendering="auto"><circle fill="#000000" cx="2" cy="2" r="1.75"/></svg><svg viewBox="0 0 4 4" x="1484" y="1712" width="57" height="57" shape-rendering="auto"><circle fill="#000000" cx="2" cy="2" r="1.75"/></svg><svg viewBox="0 0 4 4" x="1598" y="1712" width="57" height="57" shape-rendering="auto"><circle fill="#000000" cx="2" cy="2" r="1.75"/></svg><svg viewBox="0 0 4 4" x="1769" y="1712" width="57" height="57" shape-rendering="auto"><circle fill="#000000" cx="2" cy="2" r="1.75"/></svg><svg viewBox="0 0 4 4" x="743" y="1769" width="57" height="57" shape-rendering="auto"><path fill="#000000" d="M2,.25a1.75,1.75,0,0,0,0,3.5H4V.25Z"/></svg><svg viewBox="0 0 4 4" x="800" y="1769" width="57" height="57" shape-rendering="auto"><path fill="#000000" d="M2,3.75A1.75,1.75,0,0,0,2,.25H0v3.5Z"/></svg><svg viewBox="0 0 4 4" x="971" y="1769" width="57" height="57" shape-rendering="auto"><circle fill="#000000" cx="2" cy="2" r="1.75"/></svg><svg viewBox="0 0 4 4" x="1142" y="1769" width="57" height="57" shape-rendering="auto"><path fill="#000000" d="M2,.25a1.75,1.75,0,0,0,0,3.5H4V.25Z"/></svg><svg viewBox="0 0 4 4" x="1199" y="1769" width="57" height="57" shape-rendering="auto"><path fill="#000000" d="M2,3.75A1.75,1.75,0,0,0,2,.25H0v3.5Z"/></svg><svg viewBox="0 0 4 4" x="1427" y="1769" width="57" height="57" shape-rendering="auto"><path fill="#000000" d="M2,.25a1.75,1.75,0,0,0,0,3.5H4V.25Z"/></svg><svg viewBox="0 0 4 4" x="1484" y="1769" width="57" height="57" shape-rendering="auto"><rect fill="#000000" y="0.25" width="4" height="3.5"/></svg><svg viewBox="0 0 4 4" x="1541" y="1769" width="57" height="57" shape-rendering="auto"><rect fill="#000000" y="0.25" width="4" height="3.5"/></svg><svg viewBox="0 0 4 4" x="1598" y="1769" width="57" height="57" shape-rendering="auto"><path fill="#000000" d="M2,3.75A1.75,1.75,0,0,0,2,.25H0v3.5Z"/></svg><svg version="1.1" id="Ebene_1" x="173" y="173" viewBox="0 0 700 700" style="enable-background:new 0 0 700 700;" xml:space="preserve" width="399" height="399" shape-rendering="auto">

<path fill="#000000" d="M21.2-0.1C9.5-0.1-0.1,9.5-0.1,21.2v78.8v100v100v100v100v100v78.8c0,11.7,9.5,21.3,21.3,21.3h657.6  c11.7,0,21.3-9.5,21.3-21.3V600V500V400V300V200v-100V21.2c0-11.7-9.5-21.3-21.3-21.3H21.2z M600,200v100v100v100v87.8  c0,6.8-5.5,12.2-12.2,12.2H112.2c-6.8,0-12.2-5.5-12.2-12.2V500V400V300V200v-87.8c0-6.8,5.5-12.2,12.2-12.2h475.6  c6.8,0,12.2,5.5,12.2,12.2V200z"/>
</svg>
<svg version="1.1" id="Ebene_1" x="173" y="173" viewBox="0 0 700 700" style="enable-background:new 0 0 700 700;" xml:space="preserve" width="399" height="399" shape-rendering="auto">

<path fill="#000000" d="M500,400V300v-78.8c0-11.7-9.5-21.3-21.3-21.3H221.2c-11.7,0-21.3,9.5-21.3,21.3V300v100v78.8    c0,11.7,9.5,21.3,21.3,21.3h257.5c11.7,0,21.3-9.5,21.3-21.3V400z"/>
</svg>
<svg version="1.1" id="Ebene_1" x="1427" y="173" viewBox="0 0 700 700" style="enable-background:new 0 0 700 700;" xml:space="preserve" width="399" height="399" shape-rendering="auto">

<path fill="#000000" d="M21.2-0.1C9.5-0.1-0.1,9.5-0.1,21.2v78.8v100v100v100v100v100v78.8c0,11.7,9.5,21.3,21.3,21.3h657.6  c11.7,0,21.3-9.5,21.3-21.3V600V500V400V300V200v-100V21.2c0-11.7-9.5-21.3-21.3-21.3H21.2z M600,200v100v100v100v87.8  c0,6.8-5.5,12.2-12.2,12.2H112.2c-6.8,0-12.2-5.5-12.2-12.2V500V400V300V200v-87.8c0-6.8,5.5-12.2,12.2-12.2h475.6  c6.8,0,12.2,5.5,12.2,12.2V200z"/>
</svg>
<svg version="1.1" id="Ebene_1" x="1427" y="173" viewBox="0 0 700 700" style="enable-background:new 0 0 700 700;" xml:space="preserve" width="399" height="399" shape-rendering="auto">

<path fill="#000000" d="M500,400V300v-78.8c0-11.7-9.5-21.3-21.3-21.3H221.2c-11.7,0-21.3,9.5-21.3,21.3V300v100v78.8    c0,11.7,9.5,21.3,21.3,21.3h257.5c11.7,0,21.3-9.5,21.3-21.3V400z"/>
</svg>
<svg version="1.1" id="Ebene_1" x="173" y="1427" viewBox="0 0 700 700" style="enable-background:new 0 0 700 700;" xml:space="preserve" width="399" height="399" shape-rendering="auto">

<path fill="#000000" d="M21.2-0.1C9.5-0.1-0.1,9.5-0.1,21.2v78.8v100v100v100v100v100v78.8c0,11.7,9.5,21.3,21.3,21.3h657.6  c11.7,0,21.3-9.5,21.3-21.3V600V500V400V300V200v-100V21.2c0-11.7-9.5-21.3-21.3-21.3H21.2z M600,200v100v100v100v87.8  c0,6.8-5.5,12.2-12.2,12.2H112.2c-6.8,0-12.2-5.5-12.2-12.2V500V400V300V200v-87.8c0-6.8,5.5-12.2,12.2-12.2h475.6  c6.8,0,12.2,5.5,12.2,12.2V200z"/>
</svg>
<svg version="1.1" id="Ebene_1" x="173" y="1427" viewBox="0 0 700 700" style="enable-background:new 0 0 700 700;" xml:space="preserve" width="399" height="399" shape-rendering="auto">

<path fill="#000000" d="M500,400V300v-78.8c0-11.7-9.5-21.3-21.3-21.3H221.2c-11.7,0-21.3,9.5-21.3,21.3V300v100v78.8    c0,11.7,9.5,21.3,21.3,21.3h257.5c11.7,0,21.3-9.5,21.3-21.3V400z"/>
</svg>
<svg version="1.0" id="Layer_1" x="771" y="771" viewBox="0 0 700 700" enable-background="new 0 0 700 700" xml:space="preserve" width="456" height="456" shape-rendering="auto">
<g>
	<g>
		<path fill="#000000" d="M261.1,296.3c0,30.2,10,57.6,26.1,77.3C271,353.8,261.1,326.5,261.1,296.3L261.1,296.3z"/>
		<path fill="#000000" d="M406.6,211.9c-15.4-15.6-35.1-25-56.6-25s-41.2,9.4-56.6,25c15.4-15.6,35.1-25,56.6-25    S391.2,196.3,406.6,211.9z"/>
		<path fill="#000000" d="M406.6,211.9c6.6,6.7,12.4,14.5,17.2,23.2C419,226.4,413.2,218.5,406.6,211.9z"/>
		<path fill="#000000" d="M276.3,235.1c4.8-8.7,10.6-16.6,17.2-23.2C286.8,218.5,281.1,226.4,276.3,235.1z"/>
		<path fill="#000000" d="M439,296.3c0,30.2-10,57.6-26.1,77.3C429,353.8,439,326.5,439,296.3L439,296.3z"/>
		<path fill="#000000" d="M350,87.5C205,87.5,87.5,205,87.5,350S205,612.5,350,612.5c145,0,262.5-117.5,262.5-262.5    S495,87.5,350,87.5z M350,114.2c130.2,0,235.8,105.6,235.8,235.8c0,56.4-19.8,108.2-52.9,148.8c-2-9.7-4.4-21.3-5.5-27.9    c-1.7-10.2-15.8-23.6-75.8-45.7c-24.9-9.2-38.6-12.6-46.2-16.5c-16.3,11.3-35.2,17.9-55.4,17.9c-20.1,0-39-6.6-55.2-17.8    c-7.6,3.9-21.3,7.3-46.3,16.4c-60,22-74.2,35.5-75.8,45.7c-1.1,6.6-3.5,18.1-5.5,27.8c-33.1-40.6-52.9-92.4-52.9-148.8    C114.2,219.8,219.8,114.2,350,114.2z"/>
		<path fill="#000000" d="M435,263.7c-2.6-10.3-6.4-19.9-11.2-28.6c-4.8-8.7-10.6-16.6-17.2-23.2c-15.4-15.6-35.1-25-56.6-25    s-41.2,9.4-56.6,25c-6.6,6.7-12.4,14.5-17.2,23.2c-4.8,8.7-8.6,18.4-11.2,28.6c-2.6,10.3-4,21.2-4,32.5c0,30.2,10,57.6,26.1,77.3    c6,7.4,12.9,13.8,20.5,18.8c12.6,8.4,27.1,13.2,42.4,13.2s29.8-4.8,42.4-13.2c7.6-5.1,14.5-11.4,20.5-18.8    c16.1-19.8,26.1-47.1,26.1-77.3C439,284.9,437.6,274,435,263.7z"/>
	</g>
</g>
</svg>
</svg>

</svg>
